<?xml version="1.0" encoding="UTF-8" standalone="no"?>
<!DOCTYPE svg PUBLIC "-//W3C//DTD SVG 1.1//EN"
 "http://www.w3.org/Graphics/SVG/1.1/DTD/svg11.dtd">
<!-- Generated by graphviz version 7.0.0 (0)
 -->
<!-- Pages: 1 -->
<svg width="674pt" height="476pt"
 viewBox="0.00 0.00 673.50 476.00" xmlns="http://www.w3.org/2000/svg" xmlns:xlink="http://www.w3.org/1999/xlink">
<g id="graph0" class="graph" transform="scale(1 1) rotate(0) translate(4 472)">
<polygon fill="white" stroke="none" points="-4,4 -4,-472 669.5,-472 669.5,4 -4,4"/>
<!-- [root] aws_eip.one (expand) -->
<g id="node1" class="node">
<title>[root] aws_eip.one (expand)</title>
<polygon fill="none" stroke="black" points="397.5,-324 294.5,-324 294.5,-288 397.5,-288 397.5,-324"/>
<text text-anchor="middle" x="346" y="-302.3" font-family="Times,serif" font-size="14.00">aws_eip.one</text>
</g>
<!-- [root] aws_internet_gateway.gw (expand) -->
<g id="node3" class="node">
<title>[root] aws_internet_gateway.gw (expand)</title>
<polygon fill="none" stroke="black" points="638.5,-180 439.5,-180 439.5,-144 638.5,-144 638.5,-180"/>
<text text-anchor="middle" x="539" y="-158.3" font-family="Times,serif" font-size="14.00">aws_internet_gateway.gw</text>
</g>
<!-- [root] aws_eip.one (expand)&#45;&gt;[root] aws_internet_gateway.gw (expand) -->
<g id="edge1" class="edge">
<title>[root] aws_eip.one (expand)&#45;&gt;[root] aws_internet_gateway.gw (expand)</title>
<path fill="none" stroke="black" d="M353.12,-287.61C362.06,-267.76 379.15,-235.54 403,-216 419.45,-202.52 439.73,-192.19 459.56,-184.38"/>
<polygon fill="black" stroke="black" points="460.62,-187.72 468.76,-180.94 458.17,-181.16 460.62,-187.72"/>
</g>
<!-- [root] aws_network_interface.web&#45;server&#45;nic (expand) -->
<g id="node4" class="node">
<title>[root] aws_network_interface.web&#45;server&#45;nic (expand)</title>
<polygon fill="none" stroke="black" points="304,-252 14,-252 14,-216 304,-216 304,-252"/>
<text text-anchor="middle" x="159" y="-230.3" font-family="Times,serif" font-size="14.00">aws_network_interface.web&#45;server&#45;nic</text>
</g>
<!-- [root] aws_eip.one (expand)&#45;&gt;[root] aws_network_interface.web&#45;server&#45;nic (expand) -->
<g id="edge2" class="edge">
<title>[root] aws_eip.one (expand)&#45;&gt;[root] aws_network_interface.web&#45;server&#45;nic (expand)</title>
<path fill="none" stroke="black" d="M299.29,-287.52C274.1,-278.08 242.79,-266.37 216.15,-256.39"/>
<polygon fill="black" stroke="black" points="217.44,-253.14 206.85,-252.91 214.99,-259.7 217.44,-253.14"/>
</g>
<!-- [root] aws_instance.web&#45;server&#45;instance (expand) -->
<g id="node2" class="node">
<title>[root] aws_instance.web&#45;server&#45;instance (expand)</title>
<polygon fill="none" stroke="black" points="276,-324 16,-324 16,-288 276,-288 276,-324"/>
<text text-anchor="middle" x="146" y="-302.3" font-family="Times,serif" font-size="14.00">aws_instance.web&#45;server&#45;instance</text>
</g>
<!-- [root] aws_instance.web&#45;server&#45;instance (expand)&#45;&gt;[root] aws_network_interface.web&#45;server&#45;nic (expand) -->
<g id="edge3" class="edge">
<title>[root] aws_instance.web&#45;server&#45;instance (expand)&#45;&gt;[root] aws_network_interface.web&#45;server&#45;nic (expand)</title>
<path fill="none" stroke="black" d="M149.21,-287.7C150.58,-280.32 152.22,-271.52 153.75,-263.25"/>
<polygon fill="black" stroke="black" points="157.16,-264.06 155.55,-253.59 150.28,-262.79 157.16,-264.06"/>
</g>
<!-- [root] aws_vpc.prod&#45;vpc (expand) -->
<g id="node9" class="node">
<title>[root] aws_vpc.prod&#45;vpc (expand)</title>
<polygon fill="none" stroke="black" points="409.5,-108 266.5,-108 266.5,-72 409.5,-72 409.5,-108"/>
<text text-anchor="middle" x="338" y="-86.3" font-family="Times,serif" font-size="14.00">aws_vpc.prod&#45;vpc</text>
</g>
<!-- [root] aws_internet_gateway.gw (expand)&#45;&gt;[root] aws_vpc.prod&#45;vpc (expand) -->
<g id="edge4" class="edge">
<title>[root] aws_internet_gateway.gw (expand)&#45;&gt;[root] aws_vpc.prod&#45;vpc (expand)</title>
<path fill="none" stroke="black" d="M488.8,-143.52C461.47,-134 427.47,-122.16 398.67,-112.13"/>
<polygon fill="black" stroke="black" points="399.93,-108.86 389.34,-108.88 397.63,-115.47 399.93,-108.86"/>
</g>
<!-- [root] aws_security_group.allow_web (expand) -->
<g id="node7" class="node">
<title>[root] aws_security_group.allow_web (expand)</title>
<polygon fill="none" stroke="black" points="236,-180 0,-180 0,-144 236,-144 236,-180"/>
<text text-anchor="middle" x="118" y="-158.3" font-family="Times,serif" font-size="14.00">aws_security_group.allow_web</text>
</g>
<!-- [root] aws_network_interface.web&#45;server&#45;nic (expand)&#45;&gt;[root] aws_security_group.allow_web (expand) -->
<g id="edge5" class="edge">
<title>[root] aws_network_interface.web&#45;server&#45;nic (expand)&#45;&gt;[root] aws_security_group.allow_web (expand)</title>
<path fill="none" stroke="black" d="M148.87,-215.7C144.3,-207.9 138.8,-198.51 133.71,-189.83"/>
<polygon fill="black" stroke="black" points="136.86,-188.27 128.78,-181.41 130.82,-191.81 136.86,-188.27"/>
</g>
<!-- [root] aws_subnet.subnet&#45;1 (expand) -->
<g id="node8" class="node">
<title>[root] aws_subnet.subnet&#45;1 (expand)</title>
<polygon fill="none" stroke="black" points="421.5,-180 254.5,-180 254.5,-144 421.5,-144 421.5,-180"/>
<text text-anchor="middle" x="338" y="-158.3" font-family="Times,serif" font-size="14.00">aws_subnet.subnet&#45;1</text>
</g>
<!-- [root] aws_network_interface.web&#45;server&#45;nic (expand)&#45;&gt;[root] aws_subnet.subnet&#45;1 (expand) -->
<g id="edge6" class="edge">
<title>[root] aws_network_interface.web&#45;server&#45;nic (expand)&#45;&gt;[root] aws_subnet.subnet&#45;1 (expand)</title>
<path fill="none" stroke="black" d="M203.71,-215.52C227.72,-206.13 257.52,-194.47 282.95,-184.53"/>
<polygon fill="black" stroke="black" points="284.1,-187.83 292.14,-180.93 281.55,-181.32 284.1,-187.83"/>
</g>
<!-- [root] aws_route_table.prod&#45;route&#45;table (expand) -->
<g id="node5" class="node">
<title>[root] aws_route_table.prod&#45;route&#45;table (expand)</title>
<polygon fill="none" stroke="black" points="665.5,-252 412.5,-252 412.5,-216 665.5,-216 665.5,-252"/>
<text text-anchor="middle" x="539" y="-230.3" font-family="Times,serif" font-size="14.00">aws_route_table.prod&#45;route&#45;table</text>
</g>
<!-- [root] aws_route_table.prod&#45;route&#45;table (expand)&#45;&gt;[root] aws_internet_gateway.gw (expand) -->
<g id="edge7" class="edge">
<title>[root] aws_route_table.prod&#45;route&#45;table (expand)&#45;&gt;[root] aws_internet_gateway.gw (expand)</title>
<path fill="none" stroke="black" d="M539,-215.7C539,-208.41 539,-199.73 539,-191.54"/>
<polygon fill="black" stroke="black" points="542.5,-191.62 539,-181.62 535.5,-191.62 542.5,-191.62"/>
</g>
<!-- [root] aws_route_table_association.a (expand) -->
<g id="node6" class="node">
<title>[root] aws_route_table_association.a (expand)</title>
<polygon fill="none" stroke="black" points="646.5,-324 415.5,-324 415.5,-288 646.5,-288 646.5,-324"/>
<text text-anchor="middle" x="531" y="-302.3" font-family="Times,serif" font-size="14.00">aws_route_table_association.a</text>
</g>
<!-- [root] aws_route_table_association.a (expand)&#45;&gt;[root] aws_route_table.prod&#45;route&#45;table (expand) -->
<g id="edge8" class="edge">
<title>[root] aws_route_table_association.a (expand)&#45;&gt;[root] aws_route_table.prod&#45;route&#45;table (expand)</title>
<path fill="none" stroke="black" d="M532.98,-287.7C533.81,-280.41 534.8,-271.73 535.74,-263.54"/>
<polygon fill="black" stroke="black" points="539.22,-263.94 536.87,-253.61 532.26,-263.15 539.22,-263.94"/>
</g>
<!-- [root] aws_route_table_association.a (expand)&#45;&gt;[root] aws_subnet.subnet&#45;1 (expand) -->
<g id="edge9" class="edge">
<title>[root] aws_route_table_association.a (expand)&#45;&gt;[root] aws_subnet.subnet&#45;1 (expand)</title>
<path fill="none" stroke="black" d="M470.33,-287.61C447.71,-279.22 422.76,-267.53 403,-252 381.58,-235.16 363.88,-209.51 352.38,-190.07"/>
<polygon fill="black" stroke="black" points="355.54,-188.55 347.55,-181.59 349.46,-192.01 355.54,-188.55"/>
</g>
<!-- [root] aws_security_group.allow_web (expand)&#45;&gt;[root] aws_vpc.prod&#45;vpc (expand) -->
<g id="edge10" class="edge">
<title>[root] aws_security_group.allow_web (expand)&#45;&gt;[root] aws_vpc.prod&#45;vpc (expand)</title>
<path fill="none" stroke="black" d="M172.95,-143.52C203.12,-133.92 240.73,-121.95 272.43,-111.86"/>
<polygon fill="black" stroke="black" points="273.46,-115.21 281.93,-108.84 271.34,-108.54 273.46,-115.21"/>
</g>
<!-- [root] aws_subnet.subnet&#45;1 (expand)&#45;&gt;[root] aws_vpc.prod&#45;vpc (expand) -->
<g id="edge11" class="edge">
<title>[root] aws_subnet.subnet&#45;1 (expand)&#45;&gt;[root] aws_vpc.prod&#45;vpc (expand)</title>
<path fill="none" stroke="black" d="M338,-143.7C338,-136.41 338,-127.73 338,-119.54"/>
<polygon fill="black" stroke="black" points="341.5,-119.62 338,-109.62 334.5,-119.62 341.5,-119.62"/>
</g>
<!-- [root] provider[&quot;registry.terraform.io/hashicorp/aws&quot;] -->
<g id="node10" class="node">
<title>[root] provider[&quot;registry.terraform.io/hashicorp/aws&quot;]</title>
<polygon fill="none" stroke="black" points="338,-36 12.74,-18 338,0 663.26,-18 338,-36"/>
<text text-anchor="middle" x="338" y="-14.3" font-family="Times,serif" font-size="14.00">provider[&quot;registry.terraform.io/hashicorp/aws&quot;]</text>
</g>
<!-- [root] aws_vpc.prod&#45;vpc (expand)&#45;&gt;[root] provider[&quot;registry.terraform.io/hashicorp/aws&quot;] -->
<g id="edge12" class="edge">
<title>[root] aws_vpc.prod&#45;vpc (expand)&#45;&gt;[root] provider[&quot;registry.terraform.io/hashicorp/aws&quot;]</title>
<path fill="none" stroke="black" d="M338,-71.7C338,-64.41 338,-55.73 338,-47.54"/>
<polygon fill="black" stroke="black" points="341.5,-47.62 338,-37.62 334.5,-47.62 341.5,-47.62"/>
</g>
<!-- [root] provider[&quot;registry.terraform.io/hashicorp/aws&quot;] (close) -->
<g id="node11" class="node">
<title>[root] provider[&quot;registry.terraform.io/hashicorp/aws&quot;] (close)</title>
<ellipse fill="none" stroke="black" cx="346" cy="-378" rx="291.65" ry="18"/>
<text text-anchor="middle" x="346" y="-374.3" font-family="Times,serif" font-size="14.00">[root] provider[&quot;registry.terraform.io/hashicorp/aws&quot;] (close)</text>
</g>
<!-- [root] provider[&quot;registry.terraform.io/hashicorp/aws&quot;] (close)&#45;&gt;[root] aws_eip.one (expand) -->
<g id="edge13" class="edge">
<title>[root] provider[&quot;registry.terraform.io/hashicorp/aws&quot;] (close)&#45;&gt;[root] aws_eip.one (expand)</title>
<path fill="none" stroke="black" d="M346,-359.7C346,-352.41 346,-343.73 346,-335.54"/>
<polygon fill="black" stroke="black" points="349.5,-335.62 346,-325.62 342.5,-335.62 349.5,-335.62"/>
</g>
<!-- [root] provider[&quot;registry.terraform.io/hashicorp/aws&quot;] (close)&#45;&gt;[root] aws_instance.web&#45;server&#45;instance (expand) -->
<g id="edge14" class="edge">
<title>[root] provider[&quot;registry.terraform.io/hashicorp/aws&quot;] (close)&#45;&gt;[root] aws_instance.web&#45;server&#45;instance (expand)</title>
<path fill="none" stroke="black" d="M296.82,-359.79C269.54,-350.24 235.39,-338.28 206.48,-328.17"/>
<polygon fill="black" stroke="black" points="207.71,-324.89 197.11,-324.89 205.4,-331.5 207.71,-324.89"/>
</g>
<!-- [root] provider[&quot;registry.terraform.io/hashicorp/aws&quot;] (close)&#45;&gt;[root] aws_route_table_association.a (expand) -->
<g id="edge15" class="edge">
<title>[root] provider[&quot;registry.terraform.io/hashicorp/aws&quot;] (close)&#45;&gt;[root] aws_route_table_association.a (expand)</title>
<path fill="none" stroke="black" d="M391.26,-359.88C416.26,-350.41 447.57,-338.57 474.21,-328.49"/>
<polygon fill="black" stroke="black" points="475.4,-331.78 483.51,-324.97 472.92,-325.23 475.4,-331.78"/>
</g>
<!-- [root] root -->
<g id="node12" class="node">
<title>[root] root</title>
<ellipse fill="none" stroke="black" cx="346" cy="-450" rx="58.49" ry="18"/>
<text text-anchor="middle" x="346" y="-446.3" font-family="Times,serif" font-size="14.00">[root] root</text>
</g>
<!-- [root] root&#45;&gt;[root] provider[&quot;registry.terraform.io/hashicorp/aws&quot;] (close) -->
<g id="edge16" class="edge">
<title>[root] root&#45;&gt;[root] provider[&quot;registry.terraform.io/hashicorp/aws&quot;] (close)</title>
<path fill="none" stroke="black" d="M346,-431.7C346,-424.41 346,-415.73 346,-407.54"/>
<polygon fill="black" stroke="black" points="349.5,-407.62 346,-397.62 342.5,-407.62 349.5,-407.62"/>
</g>
</g>
</svg>
